<svg width="30" height="30" viewBox="0 0 30 30" fill="none" xmlns="http://www.w3.org/2000/svg">
<circle cx="15" cy="15" r="15" fill="#F3F4F6"/>
<path d="M10.4919 11.7806C9.74318 11.7806 9.11173 11.9701 8.61359 12.2495V9V8.5H8.11359H6.75H6.25V9V20.25V20.75H6.75H8.11359H8.61359V20.25V15.6541C8.61359 14.9998 8.83688 14.6036 9.11558 14.3637C9.40728 14.1127 9.81344 13.9876 10.2382 13.9876C10.6839 13.9876 11.0099 14.1142 11.2246 14.3288C11.4382 14.5422 11.6092 14.91 11.6092 15.5303V20.25V20.75H12.1092H13.4728H13.9728V20.25V15.3446C13.9728 14.1514 13.5726 13.2416 12.9 12.6347C12.2367 12.0363 11.362 11.7806 10.4919 11.7806ZM19.5191 11.7806C18.7704 11.7806 18.1389 11.9701 17.6408 12.2495V9V8.5H17.1408H15.7772H15.2772V9V20.25V20.75H15.7772H17.1408H17.6408V20.25V15.6541C17.6408 14.9998 17.8641 14.6036 18.1428 14.3637C18.4345 14.1127 18.8406 13.9876 19.2654 13.9876C19.7111 13.9876 20.0371 14.1142 20.2518 14.3288C20.4654 14.5422 20.6364 14.91 20.6364 15.5303V20.25V20.75H21.1364H22.5H23V20.25V15.3446C23 14.1514 22.5998 13.2416 21.9272 12.6347C21.2639 12.0363 20.3892 11.7806 19.5191 11.7806Z" stroke="black"/>
</svg>
