<svg width="30" height="30" viewBox="0 0 30 30" fill="none" xmlns="http://www.w3.org/2000/svg">
<circle cx="15" cy="15" r="15" fill="#F3F4F6"/>
<path fill-rule="evenodd" clip-rule="evenodd" d="M11.0714 7.64282C9.17785 7.64282 7.64282 9.17785 7.64282 11.0714V18.9285C7.64282 20.8221 9.17785 22.3571 11.0714 22.3571H18.9285C20.8221 22.3571 22.3571 20.8221 22.3571 18.9285V11.0714C22.3571 9.17785 20.8221 7.64282 18.9285 7.64282H11.0714ZM6.64282 11.0714C6.64282 8.62556 8.62556 6.64282 11.0714 6.64282H18.9285C21.3744 6.64282 23.3571 8.62556 23.3571 11.0714V18.9285C23.3571 21.3744 21.3744 23.3571 18.9285 23.3571H11.0714C8.62556 23.3571 6.64282 21.3744 6.64282 18.9285V11.0714ZM15.4216 12.3516C14.8717 12.27 14.3102 12.3639 13.8167 12.62C13.3233 12.876 12.9232 13.2811 12.6733 13.7776C12.4233 14.2742 12.3364 14.8369 12.4247 15.3857C12.513 15.9345 12.7721 16.4415 13.1652 16.8346C13.5582 17.2277 14.0653 17.4868 14.6141 17.5751C15.1629 17.6634 15.7256 17.5764 16.2222 17.3265C16.7187 17.0766 17.1238 16.6765 17.3798 16.183C17.6358 15.6896 17.7298 15.128 17.6482 14.5782C17.5651 14.0173 17.3037 13.498 16.9027 13.097C16.5018 12.6961 15.9825 12.4347 15.4216 12.3516ZM13.3562 11.7323C14.0363 11.3794 14.8104 11.25 15.5683 11.3624C16.3414 11.477 17.0572 11.8373 17.6098 12.3899C18.1625 12.9426 18.5228 13.6584 18.6374 14.4315C18.7498 15.1894 18.6203 15.9635 18.2674 16.6436C17.9145 17.3237 17.3562 17.8753 16.6717 18.2198C15.9873 18.5642 15.2117 18.6841 14.4552 18.5624C13.6987 18.4407 12.9999 18.0835 12.4581 17.5417C11.9163 16.9999 11.5591 16.3011 11.4374 15.5446C11.3156 14.7881 11.4355 14.0125 11.78 13.328C12.1245 12.6436 12.676 12.0852 13.3562 11.7323ZM19.3214 10.1785C19.0453 10.1785 18.8214 10.4024 18.8214 10.6785C18.8214 10.9547 19.0453 11.1785 19.3214 11.1785H19.3289C19.605 11.1785 19.8289 10.9547 19.8289 10.6785C19.8289 10.4024 19.605 10.1785 19.3289 10.1785H19.3214Z" fill="black"/>
</svg>
