<svg width="26" height="20" viewBox="0 0 26 20" fill="none" xmlns="http://www.w3.org/2000/svg">
<path d="M23.8304 4.27551C23.7036 3.76388 23.4454 3.2951 23.0818 2.91652C22.7182 2.53795 22.2621 2.26299 21.7597 2.11941C19.9237 1.66663 12.5801 1.66663 12.5801 1.66663C12.5801 1.66663 5.23641 1.66663 3.40049 2.16253C2.89801 2.30611 2.44195 2.58107 2.07836 2.95965C1.71477 3.33822 1.45654 3.807 1.32975 4.31863C0.993746 6.20043 0.82939 8.10939 0.838745 10.0215C0.826768 11.948 0.991134 13.8716 1.32975 15.7675C1.46953 16.2633 1.73355 16.7142 2.09629 17.0768C2.45903 17.4394 2.90823 17.7014 3.40049 17.8374C5.23641 18.3333 12.5801 18.3333 12.5801 18.3333C12.5801 18.3333 19.9237 18.3333 21.7597 17.8374C22.2621 17.6938 22.7182 17.4188 23.0818 17.0403C23.4454 16.6617 23.7036 16.1929 23.8304 15.6813C24.1638 13.8137 24.3282 11.9193 24.3214 10.0215C24.3334 8.095 24.169 6.17148 23.8304 4.27551V4.27551Z" stroke="white" stroke-linecap="round" stroke-linejoin="round"/>
<path d="M10.0645 13.3333L16.7741 9.99996L10.0645 6.66663V13.3333Z" stroke="white" stroke-linecap="round" stroke-linejoin="round"/>
</svg>
