<svg width="20" height="20" viewBox="0 0 20 20" fill="none" xmlns="http://www.w3.org/2000/svg">
<path fill-rule="evenodd" clip-rule="evenodd" d="M5.71418 1.92859C3.62339 1.92859 1.92847 3.62351 1.92847 5.7143V14.2857C1.92847 16.3765 3.62339 18.0714 5.71418 18.0714H14.2856C16.3764 18.0714 18.0713 16.3765 18.0713 14.2857V5.7143C18.0713 3.62351 16.3764 1.92859 14.2856 1.92859H5.71418ZM0.928467 5.7143C0.928467 3.07123 3.0711 0.928589 5.71418 0.928589H14.2856C16.9287 0.928589 19.0713 3.07123 19.0713 5.7143V14.2857C19.0713 16.9288 16.9287 19.0714 14.2856 19.0714H5.71418C3.0711 19.0714 0.928467 16.9288 0.928467 14.2857V5.7143ZM10.4666 7.06588C9.85723 6.97552 9.23493 7.0796 8.68816 7.3633C8.1414 7.64701 7.69802 8.0959 7.42108 8.64612C7.14413 9.19634 7.04774 9.81987 7.1456 10.428C7.24346 11.0362 7.5306 11.598 7.96617 12.0336C8.40173 12.4692 8.96355 12.7563 9.57172 12.8541C10.1799 12.952 10.8034 12.8556 11.3536 12.5787C11.9039 12.3017 12.3527 11.8583 12.6364 11.3116C12.9201 10.7648 13.0242 10.1425 12.9339 9.5332C12.8417 8.91167 12.5521 8.33625 12.1078 7.89196C11.6635 7.44766 11.0881 7.15804 10.4666 7.06588ZM8.22759 6.47568C8.96106 6.0951 9.79585 5.95549 10.6132 6.07669C11.447 6.20033 12.2189 6.58885 12.8149 7.18485C13.4109 7.78086 13.7994 8.55275 13.9231 9.38652C14.0443 10.2039 13.9046 11.0387 13.5241 11.7722C13.1435 12.5056 12.5413 13.1004 11.8032 13.4719C11.0651 13.8434 10.2287 13.9727 9.41285 13.8414C8.59702 13.7102 7.84336 13.325 7.25906 12.7407C6.67476 12.1564 6.28958 11.4027 6.1583 10.5869C6.02702 9.77108 6.15633 8.93463 6.52784 8.19653C6.89935 7.45843 7.49413 6.85626 8.22759 6.47568ZM14.7142 4.78573C14.438 4.78573 14.2142 5.00959 14.2142 5.28573C14.2142 5.56187 14.438 5.78573 14.7142 5.78573H14.7224C14.9985 5.78573 15.2224 5.56187 15.2224 5.28573C15.2224 5.00959 14.9985 4.78573 14.7224 4.78573H14.7142Z" fill="white"/>
</svg>
